<svg width="291" height="60" viewBox="0 0 291 60" fill="none" xmlns="http://www.w3.org/2000/svg">
<path d="M86.52 45.48C84.28 45.48 82.1333 45.1867 80.08 44.6C78.0267 43.9867 76.3733 43.2 75.12 42.24L77.32 37.36C78.52 38.2133 79.9333 38.92 81.56 39.48C83.2133 40.0133 84.88 40.28 86.56 40.28C87.84 40.28 88.8667 40.16 89.64 39.92C90.44 39.6533 91.0267 39.2933 91.4 38.84C91.7733 38.3867 91.96 37.8667 91.96 37.28C91.96 36.5333 91.6667 35.9467 91.08 35.52C90.4933 35.0667 89.72 34.7067 88.76 34.44C87.8 34.1467 86.7333 33.88 85.56 33.64C84.4133 33.3733 83.2533 33.0533 82.08 32.68C80.9333 32.3067 79.88 31.8267 78.92 31.24C77.96 30.6533 77.1733 29.88 76.56 28.92C75.9733 27.96 75.68 26.7333 75.68 25.24C75.68 23.64 76.1067 22.1867 76.96 20.88C77.84 19.5467 79.1467 18.4933 80.88 17.72C82.64 16.92 84.84 16.52 87.48 16.52C89.24 16.52 90.9733 16.7333 92.68 17.16C94.3867 17.56 95.8933 18.1733 97.2 19L95.2 23.92C93.8933 23.1733 92.5867 22.6267 91.28 22.28C89.9733 21.9067 88.6933 21.72 87.44 21.72C86.1867 21.72 85.16 21.8667 84.36 22.16C83.56 22.4533 82.9867 22.84 82.64 23.32C82.2933 23.7733 82.12 24.3067 82.12 24.92C82.12 25.64 82.4133 26.2267 83 26.68C83.5867 27.1067 84.36 27.4533 85.32 27.72C86.28 27.9867 87.3333 28.2533 88.48 28.52C89.6533 28.7867 90.8133 29.0933 91.96 29.44C93.1333 29.7867 94.2 30.2533 95.16 30.84C96.12 31.4267 96.8933 32.2 97.48 33.16C98.0933 34.12 98.4 35.3333 98.4 36.8C98.4 38.3733 97.96 39.8133 97.08 41.12C96.2 42.4267 94.88 43.48 93.12 44.28C91.3867 45.08 89.1867 45.48 86.52 45.48ZM113.068 45.32C110.614 45.32 108.454 44.84 106.588 43.88C104.748 42.92 103.321 41.6133 102.308 39.96C101.294 38.28 100.788 36.3733 100.788 34.24C100.788 32.08 101.281 30.1733 102.268 28.52C103.281 26.84 104.654 25.5333 106.388 24.6C108.121 23.64 110.081 23.16 112.268 23.16C114.374 23.16 116.268 23.6133 117.948 24.52C119.654 25.4 121.001 26.68 121.988 28.36C122.974 30.0133 123.468 32 123.468 34.32C123.468 34.56 123.454 34.84 123.428 35.16C123.401 35.4533 123.374 35.7333 123.348 36H105.868V32.36H120.068L117.668 33.44C117.668 32.32 117.441 31.3467 116.988 30.52C116.534 29.6933 115.908 29.0533 115.108 28.6C114.308 28.12 113.374 27.88 112.308 27.88C111.241 27.88 110.294 28.12 109.468 28.6C108.668 29.0533 108.041 29.7067 107.588 30.56C107.134 31.3867 106.908 32.3733 106.908 33.52V34.48C106.908 35.6533 107.161 36.6933 107.668 37.6C108.201 38.48 108.934 39.16 109.868 39.64C110.828 40.0933 111.948 40.32 113.228 40.32C114.374 40.32 115.374 40.1467 116.228 39.8C117.108 39.4533 117.908 38.9333 118.628 38.24L121.948 41.84C120.961 42.96 119.721 43.8267 118.228 44.44C116.734 45.0267 115.014 45.32 113.068 45.32ZM138.022 45.32C135.702 45.32 133.636 44.8533 131.822 43.92C130.009 42.96 128.582 41.64 127.542 39.96C126.529 38.28 126.022 36.3733 126.022 34.24C126.022 32.08 126.529 30.1733 127.542 28.52C128.582 26.84 130.009 25.5333 131.822 24.6C133.636 23.64 135.702 23.16 138.022 23.16C140.289 23.16 142.262 23.64 143.942 24.6C145.622 25.5333 146.862 26.88 147.662 28.64L142.822 31.24C142.262 30.2267 141.556 29.48 140.702 29C139.876 28.52 138.969 28.28 137.982 28.28C136.916 28.28 135.956 28.52 135.102 29C134.249 29.48 133.569 30.16 133.062 31.04C132.582 31.92 132.342 32.9867 132.342 34.24C132.342 35.4933 132.582 36.56 133.062 37.44C133.569 38.32 134.249 39 135.102 39.48C135.956 39.96 136.916 40.2 137.982 40.2C138.969 40.2 139.876 39.9733 140.702 39.52C141.556 39.04 142.262 38.28 142.822 37.24L147.662 39.88C146.862 41.6133 145.622 42.96 143.942 43.92C142.262 44.8533 140.289 45.32 138.022 45.32ZM151.255 45V23.48H157.215V29.56L156.375 27.8C157.015 26.28 158.042 25.1333 159.455 24.36C160.868 23.56 162.588 23.16 164.615 23.16V28.92C164.348 28.8933 164.108 28.88 163.895 28.88C163.682 28.8533 163.455 28.84 163.215 28.84C161.508 28.84 160.122 29.3333 159.055 30.32C158.015 31.28 157.495 32.7867 157.495 34.84V45H151.255ZM178.849 45.32C176.396 45.32 174.236 44.84 172.369 43.88C170.529 42.92 169.102 41.6133 168.089 39.96C167.076 38.28 166.569 36.3733 166.569 34.24C166.569 32.08 167.062 30.1733 168.049 28.52C169.062 26.84 170.436 25.5333 172.169 24.6C173.902 23.64 175.862 23.16 178.049 23.16C180.156 23.16 182.049 23.6133 183.729 24.52C185.436 25.4 186.782 26.68 187.769 28.36C188.756 30.0133 189.249 32 189.249 34.32C189.249 34.56 189.236 34.84 189.209 35.16C189.182 35.4533 189.156 35.7333 189.129 36H171.649V32.36H185.849L183.449 33.44C183.449 32.32 183.222 31.3467 182.769 30.52C182.316 29.6933 181.689 29.0533 180.889 28.6C180.089 28.12 179.156 27.88 178.089 27.88C177.022 27.88 176.076 28.12 175.249 28.6C174.449 29.0533 173.822 29.7067 173.369 30.56C172.916 31.3867 172.689 32.3733 172.689 33.52V34.48C172.689 35.6533 172.942 36.6933 173.449 37.6C173.982 38.48 174.716 39.16 175.649 39.64C176.609 40.0933 177.729 40.32 179.009 40.32C180.156 40.32 181.156 40.1467 182.009 39.8C182.889 39.4533 183.689 38.9333 184.409 38.24L187.729 41.84C186.742 42.96 185.502 43.8267 184.009 44.44C182.516 45.0267 180.796 45.32 178.849 45.32ZM202.203 45.32C199.67 45.32 197.697 44.68 196.283 43.4C194.87 42.0933 194.163 40.16 194.163 37.6V18.72H200.403V37.52C200.403 38.4267 200.643 39.1333 201.123 39.64C201.603 40.12 202.257 40.36 203.083 40.36C204.07 40.36 204.91 40.0933 205.603 39.56L207.283 43.96C206.643 44.4133 205.87 44.76 204.963 45C204.083 45.2133 203.163 45.32 202.203 45.32ZM190.843 28.28V23.48H205.763V28.28H190.843ZM211.226 45V17H223.946C226.986 17 229.666 17.5867 231.986 18.76C234.306 19.9067 236.12 21.52 237.426 23.6C238.733 25.68 239.386 28.1467 239.386 31C239.386 33.8267 238.733 36.2933 237.426 38.4C236.12 40.48 234.306 42.1067 231.986 43.28C229.666 44.4267 226.986 45 223.946 45H211.226ZM217.706 39.68H223.626C225.493 39.68 227.106 39.3333 228.466 38.64C229.853 37.92 230.92 36.9067 231.666 35.6C232.44 34.2933 232.826 32.76 232.826 31C232.826 29.2133 232.44 27.68 231.666 26.4C230.92 25.0933 229.853 24.0933 228.466 23.4C227.106 22.68 225.493 22.32 223.626 22.32H217.706V39.68ZM254.073 45.32C251.78 45.32 249.74 44.84 247.953 43.88C246.193 42.92 244.793 41.6133 243.753 39.96C242.74 38.28 242.233 36.3733 242.233 34.24C242.233 32.08 242.74 30.1733 243.753 28.52C244.793 26.84 246.193 25.5333 247.953 24.6C249.74 23.64 251.78 23.16 254.073 23.16C256.34 23.16 258.366 23.64 260.153 24.6C261.94 25.5333 263.34 26.8267 264.353 28.48C265.366 30.1333 265.873 32.0533 265.873 34.24C265.873 36.3733 265.366 38.28 264.353 39.96C263.34 41.6133 261.94 42.92 260.153 43.88C258.366 44.84 256.34 45.32 254.073 45.32ZM254.073 40.2C255.113 40.2 256.046 39.96 256.873 39.48C257.7 39 258.353 38.32 258.833 37.44C259.313 36.5333 259.553 35.4667 259.553 34.24C259.553 32.9867 259.313 31.92 258.833 31.04C258.353 30.16 257.7 29.48 256.873 29C256.046 28.52 255.113 28.28 254.073 28.28C253.033 28.28 252.1 28.52 251.273 29C250.446 29.48 249.78 30.16 249.273 31.04C248.793 31.92 248.553 32.9867 248.553 34.24C248.553 35.4667 248.793 36.5333 249.273 37.44C249.78 38.32 250.446 39 251.273 39.48C252.1 39.96 253.033 40.2 254.073 40.2ZM280.444 45.32C278.124 45.32 276.057 44.8533 274.244 43.92C272.431 42.96 271.004 41.64 269.964 39.96C268.951 38.28 268.444 36.3733 268.444 34.24C268.444 32.08 268.951 30.1733 269.964 28.52C271.004 26.84 272.431 25.5333 274.244 24.6C276.057 23.64 278.124 23.16 280.444 23.16C282.711 23.16 284.684 23.64 286.364 24.6C288.044 25.5333 289.284 26.88 290.084 28.64L285.244 31.24C284.684 30.2267 283.977 29.48 283.124 29C282.297 28.52 281.391 28.28 280.404 28.28C279.337 28.28 278.377 28.52 277.524 29C276.671 29.48 275.991 30.16 275.484 31.04C275.004 31.92 274.764 32.9867 274.764 34.24C274.764 35.4933 275.004 36.56 275.484 37.44C275.991 38.32 276.671 39 277.524 39.48C278.377 39.96 279.337 40.2 280.404 40.2C281.391 40.2 282.297 39.9733 283.124 39.52C283.977 39.04 284.684 38.28 285.244 37.24L290.084 39.88C289.284 41.6133 288.044 42.96 286.364 43.92C284.684 44.8533 282.711 45.32 280.444 45.32Z" fill="#333CC1"/>
<path d="M10.8899 0.0264742C11.4157 -0.02924 12.5844 0.00112695 13.1421 0.00161675L17.4554 0.00516675L31.5117 0.00431101L45.2774 0.0023529L49.3231 -0.00180994C50.533 -0.00254464 51.6466 -0.0225063 52.8567 0.13031C57.6446 0.734596 61.1168 4.82856 61.447 9.56794C61.6227 12.0908 61.5384 14.7191 61.5367 17.2697L61.5362 31.1452L61.5386 43.3937C61.54 45.3137 61.5618 47.2239 61.5035 49.142C61.3181 55.2522 57.6958 59.2155 51.6473 59.7922C49.4632 59.9764 45.8888 59.8713 43.6045 59.8715L29.11 59.8723L17.2263 59.8722C14.8385 59.8719 12.4241 59.979 10.0509 59.7046C4.99106 59.1195 1.44224 55.0934 1.09804 50.0699C0.928691 47.5975 1.00424 45.109 1.00412 42.6316L1.00375 29.3425L1.00363 17.0762C1.00375 14.4097 0.863672 11.4369 1.26396 8.81537C2.06637 3.56158 5.73163 0.448923 10.8899 0.0264742Z" fill="#333CC1"/>
<path d="M19.9476 16.433C25.3697 15.7669 30.9663 19.448 32.7754 24.5447L44.814 24.5476C45.8907 24.5499 46.9675 24.5466 48.0442 24.5376C48.8583 24.5294 49.7087 24.4747 50.5127 24.594C51.9372 24.8054 52.9422 25.9806 52.9584 27.4291C52.9856 29.8738 53.0554 32.3227 53.0422 34.7688C52.9793 37.2098 53.794 39.7423 50.4614 39.923C47.9862 40.0574 47.0336 39.6577 47.0604 36.8787C47.068 36.0903 47.049 35.1847 47.0381 34.393C46.5685 34.4369 46.0995 34.4874 45.6313 34.5442C45.6684 37.2948 46.2121 39.1541 42.6964 38.8935C41.5795 38.8107 40.7757 39.1025 40.0324 37.9766C39.7901 37.2835 39.8816 34.3373 39.8832 33.4109C37.509 33.3468 35.0976 33.4373 32.7191 33.3808C32.2682 34.6949 31.5931 35.921 30.724 37.0048C26.393 42.3474 18.4812 43.0711 13.1971 38.7257C10.5968 36.6154 8.94792 33.5534 8.6173 30.2208C8.30677 26.7947 9.24816 23.5735 11.46 20.9431C13.8091 18.1493 16.2971 16.7589 19.9476 16.433Z" fill="#FEFEFE"/>
<path d="M21.015 24.2261C23.6373 24.2005 25.7886 26.2961 25.8318 28.9181C25.875 31.5401 23.794 33.7054 21.1724 33.7664C18.5256 33.8279 16.3349 31.7226 16.2912 29.0754C16.2476 26.4283 18.3677 24.2519 21.015 24.2261Z" fill="#333CC1"/>
</svg>
